<mxfile host="app.diagrams.net" modified="2020-08-10T13:41:56.620Z" agent="5.0 (Windows NT 10.0; Win64; x64) AppleWebKit/537.36 (KHTML, like Gecko) Chrome/84.0.4147.105 Safari/537.36" etag="x_CuZQ3DPcfFaPn-aQeq" version="13.6.2" type="github">
  <diagram id="u3ARn-pNcou19nDI-vlO" name="Page-1">
    <mxGraphModel dx="1824" dy="2095" grid="1" gridSize="10" guides="1" tooltips="1" connect="1" arrows="1" fold="1" page="1" pageScale="1" pageWidth="827" pageHeight="1169" math="0" shadow="0">
      <root>
        <mxCell id="0" />
        <mxCell id="1" parent="0" />
        <mxCell id="WcCKt2NHZGt9hPDQKaOB-1" value="" style="line;strokeWidth=1;fillColor=none;align=left;verticalAlign=middle;spacingTop=-5;spacingLeft=3;spacingRight=3;rotatable=0;labelPosition=right;points=[];portConstraint=eastwest;" parent="1" vertex="1">
          <mxGeometry x="97.5" y="-419.5" width="85" height="28" as="geometry" />
        </mxCell>
        <mxCell id="WcCKt2NHZGt9hPDQKaOB-2" value="空栈" style="text;strokeColor=none;fillColor=none;align=center;verticalAlign=top;spacingLeft=4;spacingRight=4;overflow=hidden;rotatable=0;points=[[0,0.5],[1,0.5]];portConstraint=eastwest;" parent="1" vertex="1">
          <mxGeometry x="90" y="-431" width="100" height="26" as="geometry" />
        </mxCell>
        <mxCell id="WcCKt2NHZGt9hPDQKaOB-3" value="&lt;font style=&quot;vertical-align: inherit&quot;&gt;&lt;font style=&quot;vertical-align: inherit&quot;&gt;5&lt;/font&gt;&lt;/font&gt;" style="html=1;" parent="1" vertex="1">
          <mxGeometry x="320" y="-480" width="110" height="50" as="geometry" />
        </mxCell>
        <mxCell id="WcCKt2NHZGt9hPDQKaOB-4" value="" style="endArrow=classic;html=1;" parent="1" edge="1">
          <mxGeometry relative="1" as="geometry">
            <mxPoint x="210" y="-460" as="sourcePoint" />
            <mxPoint x="310" y="-460" as="targetPoint" />
            <Array as="points">
              <mxPoint x="260" y="-500" />
            </Array>
          </mxGeometry>
        </mxCell>
        <mxCell id="WcCKt2NHZGt9hPDQKaOB-6" value="" style="endArrow=classic;html=1;" parent="1" edge="1">
          <mxGeometry relative="1" as="geometry">
            <mxPoint x="210" y="-520" as="sourcePoint" />
            <mxPoint x="310" y="-520" as="targetPoint" />
            <Array as="points">
              <mxPoint x="260" y="-560" />
            </Array>
          </mxGeometry>
        </mxCell>
        <mxCell id="WcCKt2NHZGt9hPDQKaOB-8" value="&lt;font style=&quot;vertical-align: inherit&quot;&gt;&lt;font style=&quot;vertical-align: inherit&quot;&gt;8&lt;/font&gt;&lt;/font&gt;" style="html=1;" parent="1" vertex="1">
          <mxGeometry x="320" y="-530" width="110" height="50" as="geometry" />
        </mxCell>
        <mxCell id="WcCKt2NHZGt9hPDQKaOB-9" value="" style="line;strokeWidth=1;fillColor=none;align=left;verticalAlign=middle;spacingTop=-1;spacingLeft=3;spacingRight=3;rotatable=0;labelPosition=right;points=[];portConstraint=eastwest;" parent="1" vertex="1">
          <mxGeometry x="350" y="-412.5" width="50" height="13" as="geometry" />
        </mxCell>
        <mxCell id="WcCKt2NHZGt9hPDQKaOB-10" value="栈底" style="text;strokeColor=none;fillColor=none;align=center;verticalAlign=top;spacingLeft=4;spacingRight=4;overflow=hidden;rotatable=0;points=[[0,0.5],[1,0.5]];portConstraint=eastwest;" parent="1" vertex="1">
          <mxGeometry x="325" y="-430.5" width="100" height="26" as="geometry" />
        </mxCell>
        <mxCell id="WcCKt2NHZGt9hPDQKaOB-11" value="栈顶" style="text;strokeColor=none;fillColor=none;align=center;verticalAlign=top;spacingLeft=4;spacingRight=4;overflow=hidden;rotatable=0;points=[[0,0.5],[1,0.5]];portConstraint=eastwest;" parent="1" vertex="1">
          <mxGeometry x="320" y="-556" width="100" height="26" as="geometry" />
        </mxCell>
        <mxCell id="WcCKt2NHZGt9hPDQKaOB-12" value="" style="endArrow=classic;html=1;" parent="1" edge="1">
          <mxGeometry relative="1" as="geometry">
            <mxPoint x="440" y="-570" as="sourcePoint" />
            <mxPoint x="540" y="-570" as="targetPoint" />
            <Array as="points">
              <mxPoint x="490" y="-610" />
            </Array>
          </mxGeometry>
        </mxCell>
        <mxCell id="WcCKt2NHZGt9hPDQKaOB-14" value="&lt;font style=&quot;vertical-align: inherit&quot;&gt;&lt;font style=&quot;vertical-align: inherit&quot;&gt;5&lt;/font&gt;&lt;/font&gt;" style="html=1;" parent="1" vertex="1">
          <mxGeometry x="560" y="-480" width="110" height="50" as="geometry" />
        </mxCell>
        <mxCell id="WcCKt2NHZGt9hPDQKaOB-15" value="&lt;font style=&quot;vertical-align: inherit&quot;&gt;&lt;font style=&quot;vertical-align: inherit&quot;&gt;8&lt;/font&gt;&lt;/font&gt;" style="html=1;" parent="1" vertex="1">
          <mxGeometry x="560" y="-530" width="110" height="50" as="geometry" />
        </mxCell>
        <mxCell id="WcCKt2NHZGt9hPDQKaOB-16" value="" style="line;strokeWidth=1;fillColor=none;align=left;verticalAlign=middle;spacingTop=-1;spacingLeft=3;spacingRight=3;rotatable=0;labelPosition=right;points=[];portConstraint=eastwest;" parent="1" vertex="1">
          <mxGeometry x="590" y="-412.5" width="50" height="13" as="geometry" />
        </mxCell>
        <mxCell id="WcCKt2NHZGt9hPDQKaOB-17" value="栈顶" style="text;strokeColor=none;fillColor=none;align=center;verticalAlign=top;spacingLeft=4;spacingRight=4;overflow=hidden;rotatable=0;points=[[0,0.5],[1,0.5]];portConstraint=eastwest;" parent="1" vertex="1">
          <mxGeometry x="560" y="-606" width="100" height="26" as="geometry" />
        </mxCell>
        <mxCell id="WcCKt2NHZGt9hPDQKaOB-18" value="" style="endArrow=classic;html=1;" parent="1" edge="1">
          <mxGeometry relative="1" as="geometry">
            <mxPoint x="680" y="-615.5" as="sourcePoint" />
            <mxPoint x="780" y="-615.5" as="targetPoint" />
            <Array as="points">
              <mxPoint x="730" y="-655.5" />
            </Array>
          </mxGeometry>
        </mxCell>
        <mxCell id="WcCKt2NHZGt9hPDQKaOB-21" value="&lt;font style=&quot;vertical-align: inherit&quot;&gt;&lt;font style=&quot;vertical-align: inherit&quot;&gt;11&lt;/font&gt;&lt;/font&gt;" style="html=1;" parent="1" vertex="1">
          <mxGeometry x="560" y="-580" width="110" height="50" as="geometry" />
        </mxCell>
        <mxCell id="WcCKt2NHZGt9hPDQKaOB-22" value="&lt;font style=&quot;vertical-align: inherit&quot;&gt;&lt;font style=&quot;vertical-align: inherit&quot;&gt;5&lt;/font&gt;&lt;/font&gt;" style="html=1;" parent="1" vertex="1">
          <mxGeometry x="800" y="-479.5" width="110" height="50" as="geometry" />
        </mxCell>
        <mxCell id="WcCKt2NHZGt9hPDQKaOB-23" value="&lt;font style=&quot;vertical-align: inherit&quot;&gt;&lt;font style=&quot;vertical-align: inherit&quot;&gt;8&lt;/font&gt;&lt;/font&gt;" style="html=1;" parent="1" vertex="1">
          <mxGeometry x="800" y="-529.5" width="110" height="50" as="geometry" />
        </mxCell>
        <mxCell id="WcCKt2NHZGt9hPDQKaOB-24" value="栈顶" style="text;strokeColor=none;fillColor=none;align=center;verticalAlign=top;spacingLeft=4;spacingRight=4;overflow=hidden;rotatable=0;points=[[0,0.5],[1,0.5]];portConstraint=eastwest;" parent="1" vertex="1">
          <mxGeometry x="805" y="-655.5" width="100" height="26" as="geometry" />
        </mxCell>
        <mxCell id="WcCKt2NHZGt9hPDQKaOB-26" value="&lt;font style=&quot;vertical-align: inherit&quot;&gt;&lt;font style=&quot;vertical-align: inherit&quot;&gt;11&lt;/font&gt;&lt;/font&gt;" style="html=1;" parent="1" vertex="1">
          <mxGeometry x="800" y="-579.5" width="110" height="50" as="geometry" />
        </mxCell>
        <mxCell id="WcCKt2NHZGt9hPDQKaOB-27" value="" style="line;strokeWidth=1;fillColor=none;align=left;verticalAlign=middle;spacingTop=-1;spacingLeft=3;spacingRight=3;rotatable=0;labelPosition=right;points=[];portConstraint=eastwest;" parent="1" vertex="1">
          <mxGeometry x="830" y="-412" width="50" height="13" as="geometry" />
        </mxCell>
        <mxCell id="WcCKt2NHZGt9hPDQKaOB-28" value="15" style="html=1;" parent="1" vertex="1">
          <mxGeometry x="800" y="-629.5" width="110" height="50" as="geometry" />
        </mxCell>
        <mxCell id="WOMdEVYJx9ke1B_ussl2-1" value="&lt;font style=&quot;vertical-align: inherit&quot;&gt;&lt;font style=&quot;vertical-align: inherit&quot;&gt;5&lt;/font&gt;&lt;/font&gt;" style="html=1;" vertex="1" parent="1">
          <mxGeometry x="1050" y="-480.5" width="110" height="50" as="geometry" />
        </mxCell>
        <mxCell id="WOMdEVYJx9ke1B_ussl2-2" value="&lt;font style=&quot;vertical-align: inherit&quot;&gt;&lt;font style=&quot;vertical-align: inherit&quot;&gt;8&lt;/font&gt;&lt;/font&gt;" style="html=1;" vertex="1" parent="1">
          <mxGeometry x="1050" y="-530.5" width="110" height="50" as="geometry" />
        </mxCell>
        <mxCell id="WOMdEVYJx9ke1B_ussl2-3" value="栈顶" style="text;strokeColor=none;fillColor=none;align=center;verticalAlign=top;spacingLeft=4;spacingRight=4;overflow=hidden;rotatable=0;points=[[0,0.5],[1,0.5]];portConstraint=eastwest;" vertex="1" parent="1">
          <mxGeometry x="1055" y="-606.5" width="100" height="26" as="geometry" />
        </mxCell>
        <mxCell id="WOMdEVYJx9ke1B_ussl2-5" value="&lt;font style=&quot;vertical-align: inherit&quot;&gt;&lt;font style=&quot;vertical-align: inherit&quot;&gt;11&lt;/font&gt;&lt;/font&gt;" style="html=1;" vertex="1" parent="1">
          <mxGeometry x="1050" y="-580.5" width="110" height="50" as="geometry" />
        </mxCell>
        <mxCell id="WOMdEVYJx9ke1B_ussl2-6" value="" style="line;strokeWidth=1;fillColor=none;align=left;verticalAlign=middle;spacingTop=-1;spacingLeft=3;spacingRight=3;rotatable=0;labelPosition=right;points=[];portConstraint=eastwest;" vertex="1" parent="1">
          <mxGeometry x="1080" y="-413" width="50" height="13" as="geometry" />
        </mxCell>
        <mxCell id="WOMdEVYJx9ke1B_ussl2-8" value="" style="endArrow=classic;html=1;" edge="1" parent="1">
          <mxGeometry relative="1" as="geometry">
            <mxPoint x="930" y="-566" as="sourcePoint" />
            <mxPoint x="1030" y="-566" as="targetPoint" />
            <Array as="points">
              <mxPoint x="980" y="-606" />
            </Array>
          </mxGeometry>
        </mxCell>
        <mxCell id="WOMdEVYJx9ke1B_ussl2-10" value="&lt;font style=&quot;vertical-align: inherit&quot;&gt;&lt;font style=&quot;vertical-align: inherit&quot;&gt;5&lt;/font&gt;&lt;/font&gt;" style="html=1;" vertex="1" parent="1">
          <mxGeometry x="1300" y="-481" width="110" height="50" as="geometry" />
        </mxCell>
        <mxCell id="WOMdEVYJx9ke1B_ussl2-11" value="&lt;font style=&quot;vertical-align: inherit&quot;&gt;&lt;font style=&quot;vertical-align: inherit&quot;&gt;8&lt;/font&gt;&lt;/font&gt;" style="html=1;" vertex="1" parent="1">
          <mxGeometry x="1300" y="-531" width="110" height="50" as="geometry" />
        </mxCell>
        <mxCell id="WOMdEVYJx9ke1B_ussl2-12" value="栈顶" style="text;strokeColor=none;fillColor=none;align=center;verticalAlign=top;spacingLeft=4;spacingRight=4;overflow=hidden;rotatable=0;points=[[0,0.5],[1,0.5]];portConstraint=eastwest;" vertex="1" parent="1">
          <mxGeometry x="1305" y="-555.5" width="100" height="26" as="geometry" />
        </mxCell>
        <mxCell id="WOMdEVYJx9ke1B_ussl2-15" value="" style="line;strokeWidth=1;fillColor=none;align=left;verticalAlign=middle;spacingTop=-1;spacingLeft=3;spacingRight=3;rotatable=0;labelPosition=right;points=[];portConstraint=eastwest;" vertex="1" parent="1">
          <mxGeometry x="1330" y="-413.5" width="50" height="13" as="geometry" />
        </mxCell>
        <mxCell id="WOMdEVYJx9ke1B_ussl2-16" value="" style="endArrow=classic;html=1;" edge="1" parent="1">
          <mxGeometry relative="1" as="geometry">
            <mxPoint x="1180" y="-523" as="sourcePoint" />
            <mxPoint x="1280" y="-523" as="targetPoint" />
            <Array as="points">
              <mxPoint x="1230" y="-563" />
            </Array>
          </mxGeometry>
        </mxCell>
        <mxCell id="WOMdEVYJx9ke1B_ussl2-21" value="添加8" style="text;strokeColor=none;fillColor=none;align=center;verticalAlign=top;spacingLeft=4;spacingRight=4;overflow=hidden;rotatable=0;points=[[0,0.5],[1,0.5]];portConstraint=eastwest;" vertex="1" parent="1">
          <mxGeometry x="210" y="-579.5" width="100" height="26" as="geometry" />
        </mxCell>
        <mxCell id="WOMdEVYJx9ke1B_ussl2-22" value="添加5" style="text;strokeColor=none;fillColor=none;align=center;verticalAlign=top;spacingLeft=4;spacingRight=4;overflow=hidden;rotatable=0;points=[[0,0.5],[1,0.5]];portConstraint=eastwest;" vertex="1" parent="1">
          <mxGeometry x="210" y="-519" width="100" height="26" as="geometry" />
        </mxCell>
        <mxCell id="WOMdEVYJx9ke1B_ussl2-23" value="栈底" style="text;strokeColor=none;fillColor=none;align=center;verticalAlign=top;spacingLeft=4;spacingRight=4;overflow=hidden;rotatable=0;points=[[0,0.5],[1,0.5]];portConstraint=eastwest;" vertex="1" parent="1">
          <mxGeometry x="565" y="-431" width="100" height="26" as="geometry" />
        </mxCell>
        <mxCell id="WOMdEVYJx9ke1B_ussl2-25" value="添加11" style="text;strokeColor=none;fillColor=none;align=center;verticalAlign=top;spacingLeft=4;spacingRight=4;overflow=hidden;rotatable=0;points=[[0,0.5],[1,0.5]];portConstraint=eastwest;" vertex="1" parent="1">
          <mxGeometry x="440" y="-629.5" width="100" height="26" as="geometry" />
        </mxCell>
        <mxCell id="WOMdEVYJx9ke1B_ussl2-26" value="添加15" style="text;strokeColor=none;fillColor=none;align=center;verticalAlign=top;spacingLeft=4;spacingRight=4;overflow=hidden;rotatable=0;points=[[0,0.5],[1,0.5]];portConstraint=eastwest;" vertex="1" parent="1">
          <mxGeometry x="680" y="-680" width="100" height="26" as="geometry" />
        </mxCell>
        <mxCell id="WOMdEVYJx9ke1B_ussl2-28" value="移除" style="text;strokeColor=none;fillColor=none;align=center;verticalAlign=top;spacingLeft=4;spacingRight=4;overflow=hidden;rotatable=0;points=[[0,0.5],[1,0.5]];portConstraint=eastwest;" vertex="1" parent="1">
          <mxGeometry x="930" y="-629.5" width="100" height="26" as="geometry" />
        </mxCell>
        <mxCell id="WOMdEVYJx9ke1B_ussl2-29" value="移除" style="text;strokeColor=none;fillColor=none;align=center;verticalAlign=top;spacingLeft=4;spacingRight=4;overflow=hidden;rotatable=0;points=[[0,0.5],[1,0.5]];portConstraint=eastwest;" vertex="1" parent="1">
          <mxGeometry x="1180" y="-584" width="100" height="26" as="geometry" />
        </mxCell>
        <mxCell id="WOMdEVYJx9ke1B_ussl2-30" value="栈底" style="text;strokeColor=none;fillColor=none;align=center;verticalAlign=top;spacingLeft=4;spacingRight=4;overflow=hidden;rotatable=0;points=[[0,0.5],[1,0.5]];portConstraint=eastwest;" vertex="1" parent="1">
          <mxGeometry x="805" y="-429" width="100" height="26" as="geometry" />
        </mxCell>
        <mxCell id="WOMdEVYJx9ke1B_ussl2-31" value="栈底" style="text;strokeColor=none;fillColor=none;align=center;verticalAlign=top;spacingLeft=4;spacingRight=4;overflow=hidden;rotatable=0;points=[[0,0.5],[1,0.5]];portConstraint=eastwest;" vertex="1" parent="1">
          <mxGeometry x="1055" y="-431" width="100" height="26" as="geometry" />
        </mxCell>
        <mxCell id="WOMdEVYJx9ke1B_ussl2-32" value="栈底" style="text;strokeColor=none;fillColor=none;align=center;verticalAlign=top;spacingLeft=4;spacingRight=4;overflow=hidden;rotatable=0;points=[[0,0.5],[1,0.5]];portConstraint=eastwest;" vertex="1" parent="1">
          <mxGeometry x="1305" y="-430.5" width="100" height="26" as="geometry" />
        </mxCell>
      </root>
    </mxGraphModel>
  </diagram>
</mxfile>
